<svg width="20" height="20" viewBox="0 0 20 20" fill="none" xmlns="http://www.w3.org/2000/svg">
<g clip-path="url(#clip0)">
<path d="M11.9757 13.2129C11.5041 13.6854 10.8757 13.9454 10.2082 13.9454C9.54076 13.9454 8.91241 13.6854 8.44077 13.2129L4.89909 9.67133C4.42668 9.19953 4.16667 8.57133 4.16667 7.90377C4.16667 7.2362 4.42668 6.608 4.89909 6.13636C5.37073 5.6638 5.99908 5.40379 6.66665 5.40379C7.33406 5.40379 7.96241 5.6638 8.43406 6.13636L10.2082 7.90956L15.1057 3.01215C13.5057 1.64803 11.4341 0.820557 9.16662 0.820557C4.10411 0.820557 0 4.92467 0 9.98703C0 15.0495 4.10411 19.1536 9.16662 19.1536C14.229 19.1536 18.3331 15.0495 18.3331 9.98703C18.3331 9.03962 18.1891 8.12624 17.9223 7.26626L11.9757 13.2129Z" fill="#1788D2"/>
<path d="M10.2082 12.2788C9.99489 12.2788 9.78158 12.1971 9.61907 12.0346L6.07754 8.49295C5.75162 8.16718 5.75162 7.64045 6.07754 7.31468C6.40331 6.98875 6.92989 6.98875 7.25581 7.31468L10.2082 10.2671L18.5774 1.89802C18.9032 1.57224 19.4298 1.57224 19.7557 1.89802C20.0815 2.22394 20.0815 2.75051 19.7557 3.07644L10.7973 12.0346C10.635 12.1971 10.4215 12.2788 10.2082 12.2788Z" fill="#1788D2"/>
</g>
<defs>
<clipPath id="clip0">
<rect width="20" height="20" fill="white"/>
</clipPath>
</defs>
</svg>
