<svg width="20" height="20" viewBox="0 0 20 20" fill="none" xmlns="http://www.w3.org/2000/svg">
<path d="M10 0C6.00607 0 2.75677 3.2493 2.75677 7.2432C2.75677 12.1998 9.23877 19.4763 9.51474 19.7836C9.77396 20.0723 10.2265 20.0718 10.4853 19.7836C10.7613 19.4763 17.2433 12.1998 17.2433 7.2432C17.2432 3.2493 13.9939 0 10 0ZM10 10.8875C7.99056 10.8875 6.3558 9.25266 6.3558 7.2432C6.3558 5.23375 7.9906 3.59898 10 3.59898C12.0094 3.59898 13.6442 5.23379 13.6442 7.24324C13.6442 9.2527 12.0094 10.8875 10 10.8875Z" fill="white"/>
</svg>
