<svg width="0" height="0" class="hidden">
  <symbol  xmlns="http://www.w3.org/2000/svg" viewBox="0 0 20 12" id="arrow">
    <path d="M19.734.812a.909.909 0 00-1.286 0L10 9.26 1.552.812A.91.91 0 00.266 2.097l9.091 9.091a.909.909 0 001.286 0l9.09-9.09a.909.909 0 000-1.286z" ></path>
  </symbol>
  <symbol xmlns="http://www.w3.org/2000/svg" viewBox="0 0 32 32" id="arrow-right">
    <circle cx="16" cy="16" r="16" ></circle>
    <path fill="var(--color-1, #fff)" d="M22.707 16.707a1 1 0 000-1.414l-6.364-6.364a1 1 0 00-1.414 1.414L20.586 16l-5.657 5.657a1 1 0 001.414 1.414l6.364-6.364zM0 17h22v-2H0v2z" ></path>
  </symbol>
  <symbol  xmlns="http://www.w3.org/2000/svg" viewBox="0 0 20 20" id="checked">
    <g clip-path="url(#clip0)" >
      <path d="M11.976 13.213c-.472.472-1.1.732-1.768.732-.667 0-1.296-.26-1.767-.732L4.899 9.67a2.482 2.482 0 01-.732-1.767c0-.668.26-1.296.732-1.768a2.481 2.481 0 011.768-.732c.667 0 1.295.26 1.767.732l1.774 1.774 4.898-4.898a9.122 9.122 0 00-5.94-2.19 9.167 9.167 0 108.756 6.445l-5.946 5.947z"></path>
      <path d="M10.208 12.279a.831.831 0 01-.589-.244L6.078 8.493a.832.832 0 111.178-1.178l2.952 2.952 8.37-8.369a.832.832 0 111.178 1.178l-8.959 8.959a.83.83 0 01-.589.244z"></path>
    </g>
    <defs>
      <clipPath id="clip0">
        <path d="M0 0h20v20H0z"></path>
      </clipPath>
    </defs>
  </symbol>
  <symbol  xmlns="http://www.w3.org/2000/svg" viewBox="0 0 20 20" id="ig">
    <path d="M14.586 0H5.414A5.42 5.42 0 000 5.414v9.172A5.42 5.42 0 005.414 20h9.172A5.42 5.42 0 0020 14.586V5.414A5.42 5.42 0 0014.586 0zM10 15.469A5.475 5.475 0 014.531 10 5.475 5.475 0 0110 4.531 5.475 5.475 0 0115.469 10 5.475 5.475 0 0110 15.469zm5.6-9.648a1.618 1.618 0 01-1.617-1.616c0-.891.725-1.616 1.616-1.616.891 0 1.616.725 1.616 1.616 0 .891-.725 1.616-1.616 1.616z" ></path>
    <path d="M10 5.704A4.301 4.301 0 005.704 10 4.301 4.301 0 0010 14.296 4.301 4.301 0 0014.296 10 4.3 4.3 0 0010 5.704zm5.6-1.942a.444.444 0 100 .888.444.444 0 000-.888z" ></path>
  </symbol>
  <symbol  xmlns="http://www.w3.org/2000/svg" viewBox="0 0 20 20" id="marker">
    <path d="M10 0C6.006 0 2.757 3.25 2.757 7.243c0 4.957 6.482 12.233 6.758 12.54a.65.65 0 00.97 0c.276-.307 6.758-7.583 6.758-12.54C17.243 3.25 13.993 0 10 0zm0 10.887a3.648 3.648 0 01-3.644-3.644A3.648 3.648 0 0110 3.6a3.648 3.648 0 013.644 3.644A3.648 3.648 0 0110 10.887z" ></path>
  </symbol>
  <symbol  xmlns="http://www.w3.org/2000/svg" viewBox="0 0 20 20" id="tg">
    <path d="M7.848 12.65l-.331 4.654c.473 0 .678-.203.924-.447l2.22-2.121 4.597 3.367c.844.47 1.438.223 1.665-.776l3.019-14.143c.268-1.247-.45-1.735-1.272-1.429L.928 8.548c-1.21.47-1.192 1.145-.205 1.45l4.535 1.411 10.536-6.592c.496-.329.947-.147.576.181l-8.522 7.653z" ></path>
  </symbol>
  <symbol  xmlns="http://www.w3.org/2000/svg" viewBox="0 0 20 20" id="wa">
    <path d="M10.002 0h-.005C4.485 0 0 4.485 0 10c0 2.188.705 4.215 1.904 5.861L.658 19.576 4.5 18.347A9.913 9.913 0 0010.002 20C15.517 20 20 15.514 20 10S15.516 0 10.002 0zm5.82 14.121c-.242.681-1.2 1.246-1.963 1.412-.523.11-1.205.2-3.503-.753-2.938-1.217-4.831-4.204-4.978-4.397C5.236 10.188 4.19 8.8 4.19 7.366c0-1.435.729-2.133 1.022-2.433.242-.247.64-.36 1.023-.36.124 0 .235.007.335.012.294.013.441.03.635.494.241.581.829 2.016.899 2.163.071.148.142.348.042.542-.094.2-.176.288-.324.458-.147.17-.287.3-.434.483-.135.159-.288.329-.118.623.17.287.758 1.246 1.623 2.016 1.116.993 2.02 1.311 2.345 1.446.24.1.528.076.705-.111.223-.242.5-.642.78-1.035.2-.283.453-.318.718-.218.27.094 1.699.8 1.993.947.293.147.487.217.559.34.07.124.07.706-.172 1.388z"></path>
  </symbol>
  <symbol  xmlns="http://www.w3.org/2000/svg" viewBox="0 0 20 20" id="time">
    <path d="M10 0C4.486 0 0 4.486 0 10s4.486 10 10 10 10-4.486 10-10S15.514 0 10 0zm4.756 15.172a.831.831 0 01-1.178 0L9.41 11.006a.83.83 0 01-.244-.59V5a.833.833 0 111.666 0v5.072l3.923 3.922a.833.833 0 010 1.178z" ></path>
  </symbol>
  <symbol  xmlns="http://www.w3.org/2000/svg" viewBox="0 0 20 20" id="yt">
    <path d="M18.979 5.313a2.349 2.349 0 00-1.653-1.652c-1.467-.402-7.336-.402-7.336-.402s-5.869 0-7.336.387A2.397 2.397 0 001 5.313C.615 6.781.615 9.823.615 9.823s0 3.058.386 4.51a2.35 2.35 0 001.653 1.653c1.483.401 7.336.401 7.336.401s5.87 0 7.336-.386a2.35 2.35 0 001.653-1.653c.386-1.467.386-4.51.386-4.51s.016-3.057-.386-4.525zM8.12 12.634V7.012L13 9.823l-4.88 2.811z" ></path>
  </symbol>
</svg>