<svg width="40" height="40" viewBox="0 0 40 40" fill="none" xmlns="http://www.w3.org/2000/svg">
<rect width="40" height="40" rx="20" fill="#1788D2"/>
<path d="M21.7186 12.7382C17.7144 12.7382 14.4568 15.9958 14.4568 20C14.4568 24.0042 17.7145 27.2618 21.7186 27.2618C25.7228 27.2618 28.9804 24.0042 28.9804 20C28.9804 15.9958 25.7228 12.7382 21.7186 12.7382ZM21.7186 26.3243C18.2313 26.3243 15.3943 23.4873 15.3943 20C15.3943 16.5127 18.2313 13.6757 21.7186 13.6757C25.2059 13.6757 28.0429 16.5127 28.0429 20C28.0429 23.4873 25.2059 26.3243 21.7186 26.3243Z" fill="white"/>
<path d="M26.1692 19.5312H22.5298C22.3676 19.2512 22.0654 19.0623 21.7186 19.0623C21.6347 19.0623 21.5539 19.0744 21.4766 19.095L20.6159 18.2344C20.4329 18.0514 20.1361 18.0514 19.953 18.2344C19.77 18.4175 19.77 18.7143 19.953 18.8974L20.8136 19.758C20.793 19.8353 20.781 19.9162 20.781 20C20.781 20.5178 21.2008 20.9376 21.7186 20.9376C22.0655 20.9376 22.3676 20.7487 22.5298 20.4687H26.1693C26.4282 20.4687 26.638 20.2588 26.638 20C26.638 19.7411 26.4281 19.5312 26.1692 19.5312Z" fill="white"/>
<path d="M21.7186 10.7186C18.6717 10.7186 15.9633 12.1945 14.27 14.4688H10C9.74111 14.4688 9.53125 14.6787 9.53125 14.9375C9.53125 15.1964 9.74111 15.4063 10 15.4063H13.6561C13.3677 15.9104 13.1252 16.444 12.9345 17.0015C12.925 17.0009 12.9156 17 12.906 17H7.46875C7.20986 17 7 17.2099 7 17.4688C7 17.7276 7.20986 17.9375 7.46875 17.9375H12.6685C12.5509 18.4539 12.4762 18.9864 12.449 19.5313H10.6563C10.3975 19.5313 10.1876 19.7412 10.1876 20C10.1876 20.2589 10.3975 20.4688 10.6563 20.4688H12.449C12.5237 21.9634 12.9538 23.366 13.6561 24.5938H7.46875C7.20986 24.5938 7 24.8037 7 25.0625C7 25.3214 7.20986 25.5313 7.46875 25.5313H14.27C15.9633 27.8055 18.6717 29.2814 21.7186 29.2814C26.8364 29.2814 31 25.1178 31 20C31 14.8822 26.8364 10.7186 21.7186 10.7186ZM21.7186 28.3439C17.1178 28.3439 13.3747 24.6008 13.3747 20C13.3747 15.3992 17.1177 11.6561 21.7186 11.6561C26.3195 11.6561 30.0625 15.3992 30.0625 20C30.0625 24.6008 26.3194 28.3439 21.7186 28.3439Z" fill="white"/>
<path d="M21.7188 23.9821C21.595 23.9821 21.4745 24.0322 21.3869 24.1194C21.2997 24.2066 21.25 24.3275 21.25 24.4508C21.25 24.5741 21.2997 24.695 21.3869 24.7822C21.4745 24.8694 21.5955 24.9196 21.7188 24.9196C21.842 24.9196 21.9625 24.8694 22.0502 24.7822C22.1373 24.695 22.1875 24.5741 22.1875 24.4508C22.1875 24.3275 22.1373 24.2066 22.0502 24.1194C21.963 24.0322 21.842 23.9821 21.7188 23.9821Z" fill="white"/>
<path d="M21.7188 16.0179C21.842 16.0179 21.963 15.9678 22.0502 15.8806C22.1373 15.7934 22.1875 15.6725 22.1875 15.5492C22.1875 15.4259 22.1373 15.305 22.0502 15.2178C21.963 15.1306 21.842 15.0804 21.7188 15.0804C21.595 15.0804 21.4745 15.1306 21.3873 15.2178C21.2997 15.305 21.25 15.4259 21.25 15.5492C21.25 15.6725 21.2997 15.7934 21.3873 15.8806C21.4745 15.9677 21.5955 16.0179 21.7188 16.0179Z" fill="white"/>
<path d="M17.268 19.5312C17.1447 19.5312 17.0238 19.5814 16.9366 19.6686C16.8494 19.7558 16.7993 19.8767 16.7993 20C16.7993 20.1233 16.8494 20.2442 16.9366 20.3314C17.0238 20.4185 17.1447 20.4688 17.268 20.4688C17.3913 20.4688 17.5122 20.4186 17.5994 20.3314C17.6866 20.2442 17.7368 20.1233 17.7368 20C17.7368 19.8767 17.6866 19.7558 17.5994 19.6686C17.5122 19.5814 17.3913 19.5312 17.268 19.5312Z" fill="white"/>
<path d="M7.46875 23H10C10.2589 23 10.4688 22.7901 10.4688 22.5312C10.4688 22.2724 10.2589 22.0625 10 22.0625H7.46875C7.20986 22.0625 7 22.2724 7 22.5312C7 22.7901 7.20986 23 7.46875 23Z" fill="white"/>
</svg>
