<svg width="40" height="40" viewBox="0 0 40 40" fill="none" xmlns="http://www.w3.org/2000/svg">
<rect width="40" height="40" rx="20" fill="#1788D2"/>
<path d="M22.0001 16.0001H20.2628C20.1567 16.0001 20.0549 16.0422 19.9801 16.1173L16.9172 19.18C16.8421 19.255 16.8 19.3568 16.7999 19.4627V20.4001C16.7999 20.621 16.9792 20.8 17.1999 20.8H22.0001C22.2208 20.8 22.4 20.621 22.4 20.4001V16.4C22.4 16.1791 22.2208 16.0001 22.0001 16.0001ZM21.5999 20H17.6V19.6285L20.4285 16.8001H21.5999V20Z" fill="white"/>
<path d="M22.0001 27.5999C21.1164 27.5999 20.4001 28.3162 20.4001 29.1999C20.4001 30.0836 21.1164 30.7999 22.0001 30.7999C22.8837 30.7999 23.6 30.0836 23.6 29.1999C23.6 28.3162 22.8837 27.5999 22.0001 27.5999ZM22.0001 29.9999C21.5583 29.9999 21.2 29.6417 21.2 29.1999C21.2 28.7581 21.5583 28.4 22.0001 28.4C22.4419 28.4 22.8001 28.7581 22.8001 29.1999C22.8001 29.6417 22.4419 29.9999 22.0001 29.9999Z" fill="white"/>
<path d="M26.7999 27.5999C25.9164 27.5999 25.2 28.3162 25.2 29.1999C25.2 30.0836 25.9164 30.7999 26.7999 30.7999C27.6837 30.7999 28.4 30.0836 28.4 29.1999C28.4 28.3162 27.6837 27.5999 26.7999 27.5999ZM26.7999 29.9999C26.3581 29.9999 26 29.6417 26 29.1999C26 28.7581 26.3581 28.4 26.7999 28.4C27.2419 28.4 27.5999 28.7581 27.5999 29.1999C27.5999 29.6417 27.2419 29.9999 26.7999 29.9999Z" fill="white"/>
<path d="M17.1999 27.5999C16.3162 27.5999 15.5999 28.3162 15.5999 29.1999C15.5999 30.0836 16.3162 30.7999 17.1999 30.7999C18.0837 30.7999 18.8 30.0836 18.8 29.1999C18.8 28.3162 18.0837 27.5999 17.1999 27.5999ZM17.1999 29.9999C16.7582 29.9999 16.4 29.6417 16.4 29.1999C16.4 28.7581 16.7582 28.4 17.1999 28.4C17.6417 28.4 17.9999 28.7581 17.9999 29.1999C17.9999 29.6417 17.6417 29.9999 17.1999 29.9999Z" fill="white"/>
<path d="M31.6 24.8C31.821 24.8 32 24.6208 32 24.4001V20.4C32 20.179 31.821 20 31.6 20H23.9999V14.8C23.9999 14.5792 23.8209 14.3999 23.6 14.3999H19.6C19.4939 14.4 19.3922 14.4422 19.3172 14.5172L18.4001 15.4344L11.0828 8.11719C11.0079 8.04233 10.9061 8 10.8 8H8.40005C8.179 8 8 8.179 8 8.40005V22.0001C8 22.1337 8.0668 22.2586 8.17798 22.3328L11.778 24.7329C11.9618 24.8554 12.2101 24.8059 12.3329 24.6219C12.3582 24.5838 12.377 24.5417 12.3879 24.4972L13.5881 19.6971L13.9881 18.0972C14.0403 17.8826 13.9084 17.6662 13.6938 17.6141C13.4813 17.5624 13.2667 17.6911 13.2121 17.9026L12.888 19.2H10.066L11.0753 12.6332L16.1384 17.6959L15.3172 18.5173C15.2422 18.5921 15.2 18.6939 15.1999 18.8V23.9999H14.8C14.5789 23.9999 14.3999 24.1791 14.3999 24.4001V26.432C12.8712 26.6649 11.8205 28.093 12.0534 29.6217C12.2605 30.9813 13.4245 31.9895 14.8 32H29.2C30.7462 31.9881 31.9903 30.7249 31.9783 29.1786C31.9678 27.8031 30.9598 26.639 29.6 26.432V24.8H31.6ZM31.2001 20.8V23.9999H23.9999V20.8H31.2001ZM11.7497 23.7523L8.79995 21.7859V20H12.6876L11.7497 23.7523ZM11.0828 11.5092C10.9275 11.3521 10.6742 11.3507 10.5172 11.5061C10.4557 11.5669 10.4155 11.6458 10.4029 11.7311L9.25684 19.2H8.79995V8.79995H10.6344L17.8344 16.0001L16.704 17.1304L11.0828 11.5092ZM16.0001 18.9657L16.9868 17.9787L18.6828 16.2828L19.7656 15.2H23.2V23.9999H16.0001V18.9657ZM31.2001 29.2C31.1987 30.304 30.304 31.1987 29.2 31.2001H14.8C13.6955 31.2001 12.8 30.3046 12.8 29.2C12.8 28.0955 13.6955 27.2 14.8 27.2H29.2C30.304 27.2013 31.1987 28.096 31.2001 29.2ZM28.8 26.3999H15.2V24.8H28.8V26.3999Z" fill="white"/>
</svg>
