<svg width="40" height="40" viewBox="0 0 40 40" fill="none" xmlns="http://www.w3.org/2000/svg">
<rect width="40" height="40" rx="20" fill="#1788D2"/>
<g clip-path="url(#clip0)">
<path d="M31.2003 29.6736V16C31.2003 12.0236 27.9767 8.8 24.0003 8.8C20.0238 8.8 16.8003 12.0236 16.8003 16V16.8736C16.3225 17.0425 16.0024 17.4933 16.0003 18V22C16.0024 22.5067 16.3225 22.9575 16.8003 23.1264V24C16.8003 24.4418 16.4421 24.8 16.0003 24.8C15.5584 24.8 15.2003 24.4418 15.2003 24V10.3264C15.7509 10.1325 16.0814 9.56966 15.9824 8.99433C15.8835 8.419 15.3841 7.9989 14.8003 8H9.20028C8.6165 7.9989 8.11704 8.419 8.01812 8.99433C7.9192 9.56966 8.24966 10.1325 8.80028 10.3264V24C8.80028 27.9765 12.0238 31.2 16.0003 31.2C19.9767 31.2 23.2003 27.9765 23.2003 24V23.1264C23.678 22.9575 23.9982 22.5067 24.0003 22V18C23.9982 17.4933 23.678 17.0425 23.2003 16.8736V16C23.2003 15.5582 23.5584 15.2 24.0003 15.2C24.4421 15.2 24.8003 15.5582 24.8003 16V29.6736C24.2497 29.8675 23.9192 30.4303 24.0181 31.0057C24.117 31.581 24.6165 32.0011 25.2003 32H30.8003C31.3841 32.0011 31.8835 31.581 31.9824 31.0057C32.0814 30.4303 31.7509 29.8675 31.2003 29.6736ZM9.20028 8.8H14.8003C15.0212 8.8 15.2003 8.97909 15.2003 9.2C15.2003 9.42092 15.0212 9.6 14.8003 9.6H9.20028C8.97936 9.6 8.80028 9.42092 8.80028 9.2C8.80028 8.97909 8.97936 8.8 9.20028 8.8ZM16.0003 30.4C12.4674 30.3958 9.60446 27.5329 9.60028 24V10.4H14.4003V24C14.4003 24.8837 15.1166 25.6 16.0003 25.6C16.8839 25.6 17.6003 24.8837 17.6003 24V23.2H22.4003V24C22.3961 27.5329 19.5332 30.3958 16.0003 30.4ZM23.2003 22C23.2003 22.2209 23.0212 22.4 22.8003 22.4H17.2003C16.9794 22.4 16.8003 22.2209 16.8003 22V18C16.8003 17.7791 16.9794 17.6 17.2003 17.6H22.8003C23.0212 17.6 23.2003 17.7791 23.2003 18V22ZM24.0003 14.4C23.1166 14.4 22.4003 15.1163 22.4003 16V16.8H17.6003V16C17.6003 12.4654 20.4657 9.6 24.0003 9.6C27.5349 9.6 30.4003 12.4654 30.4003 16V29.6H25.6003V16C25.6003 15.1163 24.8839 14.4 24.0003 14.4ZM30.8003 31.2H25.2003C24.9794 31.2 24.8003 31.0209 24.8003 30.8C24.8003 30.5791 24.9794 30.4 25.2003 30.4H30.8003C31.0212 30.4 31.2003 30.5791 31.2003 30.8C31.2003 31.0209 31.0212 31.2 30.8003 31.2Z" fill="white"/>
<path d="M10.8 11.2C10.5791 11.2 10.4 11.379 10.4 11.6V12.4C10.4 12.6209 10.5791 12.8 10.8 12.8C11.0209 12.8 11.2 12.6209 11.2 12.4V11.6C11.2 11.379 11.0209 11.2 10.8 11.2Z" fill="white"/>
<path d="M10.8 13.6C10.5791 13.6 10.4 13.7791 10.4 14V19.6C10.4 19.8209 10.5791 20 10.8 20C11.0209 20 11.2 19.8209 11.2 19.6V14C11.2 13.7791 11.0209 13.6 10.8 13.6Z" fill="white"/>
</g>
<defs>
<clipPath id="clip0">
<rect width="24" height="24" fill="white" transform="translate(8 8)"/>
</clipPath>
</defs>
</svg>
