<svg width="40" height="40" viewBox="0 0 40 40" fill="none" xmlns="http://www.w3.org/2000/svg">
<rect width="40" height="40" rx="20" fill="#1788D2"/>
<path d="M26.0714 14.1304L22.7711 9.95735C22.2094 9.25014 21.3968 8.78369 20.5041 8.65328V6.50157C20.5041 6.2257 20.2784 6 20.0025 6C19.7266 6 19.5009 6.2257 19.5009 6.50157V8.65328C18.6081 8.77867 17.7956 9.24513 17.2389 9.95735L13.9285 14.1354C13.6426 14.5015 13.4821 14.9529 13.4821 15.4194V27.9535C13.4872 29.0871 14.41 30.0049 15.5436 29.9999C15.5486 29.9999 15.5486 29.9999 15.5536 29.9999H24.4464C25.5799 30.0099 26.5078 29.0971 26.5178 27.9635C26.5178 27.9585 26.5178 27.9585 26.5178 27.9535V15.4194C26.5178 14.9529 26.3573 14.5015 26.0714 14.1304ZM20.0025 13.5435C20.81 13.5435 21.4621 14.1956 21.4621 15.0031C21.4621 15.8106 20.81 16.4627 20.0025 16.4627C19.195 16.4627 18.5429 15.8106 18.5429 15.0031C18.5429 14.2006 19.195 13.5435 20.0025 13.5435ZM25.5197 27.9535C25.5197 28.5403 25.0382 28.9968 24.4514 28.9968H15.5536C14.9668 28.9968 14.4853 28.5403 14.4853 27.9535V15.4194C14.4853 15.1786 14.5655 14.9429 14.716 14.7573L18.0213 10.5793C18.3925 10.1128 18.9141 9.78682 19.5009 9.67146V12.5906C18.1668 12.8664 17.3141 14.1705 17.59 15.5047C17.8658 16.8388 19.1699 17.6915 20.5041 17.4156C21.8382 17.1398 22.6909 15.8357 22.415 14.5015C22.2144 13.5435 21.4671 12.7912 20.5041 12.5906V9.67146C20.7097 9.71158 20.9103 9.7818 21.1009 9.87208C21.442 10.0376 21.7429 10.2784 21.9787 10.5793L25.289 14.7523C25.4395 14.9429 25.5197 15.1786 25.5197 15.4194V27.9535Z" fill="white"/>
<path d="M21.6026 24.2922C21.3819 23.595 20.7349 23.1185 20.0026 23.1185C19.6314 23.1185 19.3305 22.8175 19.3305 22.4464C19.3305 22.0752 19.6314 21.7743 20.0026 21.7743C20.3737 21.7743 20.6747 22.0752 20.6747 22.4464C20.6747 22.7223 20.9004 22.948 21.1762 22.948C21.4521 22.948 21.6778 22.7223 21.6778 22.4464C21.6778 21.7141 21.2013 21.0671 20.5041 20.8464V20.6257C20.5041 20.3498 20.2784 20.1241 20.0026 20.1241C19.7267 20.1241 19.501 20.3498 19.501 20.6257V20.8464C18.6183 21.1223 18.1267 22.0652 18.4026 22.948C18.6233 23.6451 19.2703 24.1216 20.0026 24.1216C20.3737 24.1216 20.6747 24.4226 20.6747 24.7937C20.6747 25.1649 20.3737 25.4658 20.0026 25.4658C19.6314 25.4658 19.3305 25.1649 19.3305 24.7937C19.3305 24.5179 19.1048 24.2922 18.8289 24.2922C18.5531 24.2922 18.3273 24.5179 18.3273 24.7937C18.3273 25.526 18.8038 26.173 19.501 26.3937V26.6445C19.501 26.9204 19.7267 27.1461 20.0026 27.1461C20.2784 27.1461 20.5041 26.9204 20.5041 26.6445V26.3937C21.3869 26.1178 21.8784 25.1749 21.6026 24.2922Z" fill="white"/>
</svg>
