<svg width="175" height="50" viewBox="0 0 175 50" fill="none" xmlns="http://www.w3.org/2000/svg">
<rect width="50" height="50" rx="4" fill="white"/>
<path d="M82.92 30.75H71.76L69.45 36H66.36L75.87 15H78.84L88.38 36H85.23L82.92 30.75ZM81.87 28.35L77.34 18.06L72.81 28.35H81.87ZM105.084 25.11C106.504 25.45 107.574 26.06 108.294 26.94C109.034 27.8 109.404 28.91 109.404 30.27C109.404 32.09 108.734 33.5 107.394 34.5C106.074 35.5 104.144 36 101.604 36H92.0044V15H101.034C103.334 15 105.124 15.47 106.404 16.41C107.704 17.33 108.354 18.66 108.354 20.4C108.354 21.54 108.064 22.51 107.484 23.31C106.924 24.11 106.124 24.71 105.084 25.11ZM94.9744 24.24H100.824C102.284 24.24 103.394 23.95 104.154 23.37C104.934 22.79 105.324 21.94 105.324 20.82C105.324 19.7 104.934 18.85 104.154 18.27C103.374 17.67 102.264 17.37 100.824 17.37H94.9744V24.24ZM101.544 33.63C104.764 33.63 106.374 32.43 106.374 30.03C106.374 28.83 105.964 27.95 105.144 27.39C104.344 26.81 103.144 26.52 101.544 26.52H94.9744V33.63H101.544ZM129.656 33.39V36H114.416V15H129.236V17.61H117.416V24.06H127.946V26.61H117.416V33.39H129.656ZM142.558 15C145.278 15 147.418 15.65 148.978 16.95C150.538 18.25 151.318 20.04 151.318 22.32C151.318 24.6 150.538 26.39 148.978 27.69C147.418 28.99 145.278 29.64 142.558 29.64H137.368V36H134.368V15H142.558ZM142.468 27.03C144.368 27.03 145.818 26.63 146.818 25.83C147.818 25.01 148.318 23.84 148.318 22.32C148.318 20.8 147.818 19.64 146.818 18.84C145.818 18.02 144.368 17.61 142.468 17.61H137.368V27.03H142.468ZM165.174 36.24C163.074 36.24 161.174 35.78 159.474 34.86C157.794 33.92 156.474 32.64 155.514 31.02C154.554 29.38 154.074 27.54 154.074 25.5C154.074 23.46 154.554 21.63 155.514 20.01C156.474 18.37 157.804 17.09 159.504 16.17C161.204 15.23 163.104 14.76 165.204 14.76C166.844 14.76 168.344 15.04 169.704 15.6C171.064 16.14 172.224 16.95 173.184 18.03L171.234 19.92C169.654 18.26 167.684 17.43 165.324 17.43C163.764 17.43 162.354 17.78 161.094 18.48C159.834 19.18 158.844 20.15 158.124 21.39C157.424 22.61 157.074 23.98 157.074 25.5C157.074 27.02 157.424 28.4 158.124 29.64C158.844 30.86 159.834 31.82 161.094 32.52C162.354 33.22 163.764 33.57 165.324 33.57C167.664 33.57 169.634 32.73 171.234 31.05L173.184 32.94C172.224 34.02 171.054 34.84 169.674 35.4C168.314 35.96 166.814 36.24 165.174 36.24Z" fill="white"/>
<path d="M10 29L33.2742 12L47 19.2857" stroke="#1788D2" stroke-width="6" stroke-linejoin="round"/>
</svg>
